<svg id="Capa_5" data-name="Capa 5" xmlns="http://www.w3.org/2000/svg" viewBox="0 0 498.09 731.13"><defs><style>.cls-1,.cls-2{fill:none;stroke-linecap:round;stroke-miterlimit:10;stroke-width:11px;}.cls-1{stroke:#000;}.cls-2{stroke:#fff;}.cls-3{fill:#fff;}</style></defs><path class="cls-1" d="M731.49,640.69" transform="translate(-332.95 -190.23)"/><path class="cls-2" d="M774.12,195.73H444.72a53.82,53.82,0,0,0-53.81,53.81V794.16h27.16V249.54a53.81,53.81,0,0,1,53.81-53.81H801.27" transform="translate(-332.95 -190.23)"/><path class="cls-1" d="M467,632.63" transform="translate(-332.95 -190.23)"/><path d="M495.05,298.93s1.09-.54,2.64-1.23C496,298.49,495.12,298.93,495.05,298.93Z" transform="translate(-332.95 -190.23)"/><path class="cls-3" d="M782.21,773.63a356.08,356.08,0,0,1-25.05,33.52,274.51,274.51,0,0,1-33.71,34l-.66.57c-33.58,30-70.7,54.37-102.33,67-21,8.4-40.11,12.6-57.24,12.6q-21.51,0-38.73-8.83c-26.47-13.6-48.81-44.39-44.79-77.83,18-149.68,341.06-334.56,297.77-414.1-18.19-33.42-80.66-33-110.3-28.34-57.19,8.95-154,27.73-324,207-2,2.14-5.05,2.93-7.47,1.24L335,600a4.85,4.85,0,0,1-1.19-6.77c26.9-38,57.43-71.59,90.85-99.88,24.74-22.17,49.24-41.06,71.05-54.75,60.57-38.15,127.49-59.42,193.52-61.5,31.84-1,56.12,3.1,76.41,12.93,26.4,12.75,49.22,36.09,47.79,61.3-5.35,94.12-409.13,366.9-260.2,430.8,70.81,30.38,201.68-86.69,219.6-114.53a5.56,5.56,0,1,1,9.35,6Z" transform="translate(-332.95 -190.23)"/><path class="cls-3" d="M421,232c-4.84,10.32-2.93,35.27-2.93,35.27V794.16H390.92c-1.8-283.33-1.12-490.17,0-534,.28-10.87,1.26-35.72,18.52-51.18,11.1-9.94,25.11-12.58,35.29-13.21C444.73,195.73,425.84,221.68,421,232Z" transform="translate(-332.95 -190.23)"/><circle class="cls-3" cx="480.57" cy="530.72" r="17.52"/></svg>